<?xml version="1.0" encoding="UTF-8" standalone="no"?>
<!-- Created with Inkscape (http://www.inkscape.org/) -->

<svg
   xmlns:dc="http://purl.org/dc/elements/1.1/"
   xmlns:cc="http://creativecommons.org/ns#"
   xmlns:rdf="http://www.w3.org/1999/02/22-rdf-syntax-ns#"
   xmlns:svg="http://www.w3.org/2000/svg"
   xmlns="http://www.w3.org/2000/svg"
   xmlns:sodipodi="http://sodipodi.sourceforge.net/DTD/sodipodi-0.dtd"
   xmlns:inkscape="http://www.inkscape.org/namespaces/inkscape"
   width="150"
   height="100"
   id="svg2"
   version="1.1"
   inkscape:version="0.92.2 5c3e80d, 2017-08-06"
   sodipodi:docname="Cone Logo.svg">
  <title
     id="title830">Project: Cone_ logo original</title>
  <defs
     id="defs4" />
  <sodipodi:namedview
     id="base"
     pagecolor="#ffffff"
     bordercolor="#666666"
     borderopacity="1.0"
     inkscape:pageopacity="0.0"
     inkscape:pageshadow="2"
     inkscape:zoom="9.09"
     inkscape:cx="47.943665"
     inkscape:cy="64.063612"
     inkscape:document-units="px"
     inkscape:current-layer="layer1"
     showgrid="false"
     showguides="true"
     inkscape:guide-bbox="true"
     inkscape:window-width="1920"
     inkscape:window-height="1025"
     inkscape:window-x="0"
     inkscape:window-y="27"
     inkscape:window-maximized="1" />
  <metadata
     id="metadata7">
    <rdf:RDF>
      <cc:Work
         rdf:about="">
        <dc:format>image/svg+xml</dc:format>
        <dc:type
           rdf:resource="http://purl.org/dc/dcmitype/StillImage" />
        <dc:title>Project: Cone_ logo original</dc:title>
        <dc:date>2015-01-02</dc:date>
        <dc:creator>
          <cc:Agent>
            <dc:title>최성수</dc:title>
          </cc:Agent>
        </dc:creator>
        <dc:rights>
          <cc:Agent>
            <dc:title>Project: Cone</dc:title>
          </cc:Agent>
        </dc:rights>
        <dc:publisher>
          <cc:Agent>
            <dc:title>최성수</dc:title>
          </cc:Agent>
        </dc:publisher>
        <dc:language>English</dc:language>
        <dc:subject>
          <rdf:Bag />
        </dc:subject>
        <dc:description>Project: Cone 로고 선형 원본</dc:description>
        <cc:license
           rdf:resource="http://creativecommons.org/licenses/by-nd/4.0/" />
      </cc:Work>
      <cc:License
         rdf:about="http://creativecommons.org/licenses/by-nd/4.0/">
        <cc:permits
           rdf:resource="http://creativecommons.org/ns#Reproduction" />
        <cc:permits
           rdf:resource="http://creativecommons.org/ns#Distribution" />
        <cc:requires
           rdf:resource="http://creativecommons.org/ns#Notice" />
        <cc:requires
           rdf:resource="http://creativecommons.org/ns#Attribution" />
      </cc:License>
    </rdf:RDF>
  </metadata>
  <g
     inkscape:label="Layer 1"
     inkscape:groupmode="layer"
     id="layer1"
     transform="translate(0,-952.36215)">
    <path
       style="fill:#ff754e;fill-opacity:1;stroke:none"
       d="m 27.275182,1019.4664 -2.501249,-38.62459 29.846736,23.69999"
       id="path3787"
       inkscape:connector-curvature="0"
       sodipodi:nodetypes="ccc" />
    <path
       style="fill:#ffd94e;fill-opacity:1;stroke:none"
       d="m 56.898171,1006.3144 c 0.781903,1.6293 -4.011039,8.4656 -12.935853,13.3376 -8.924797,4.8719 -15.197473,4.6953 -16.103307,3.1263 -1.303647,-2.7169 2.307436,-7.7017 11.232249,-12.5737 8.924796,-4.8719 16.503249,-6.6069 17.806911,-3.8902 z"
       id="path3017"
       inkscape:connector-curvature="0"
       sodipodi:nodetypes="cscsc" />
    <path
       style="fill:none;stroke:#44a6fa;stroke-width:3;stroke-linecap:butt;stroke-linejoin:miter;stroke-miterlimit:4;stroke-opacity:1;stroke-dasharray:none"
       d="m 58.127924,994.84729 0,-17.65522 c 0,-2.44388 9.756355,-2.818 9.579709,2.95501 -0.12778,4.17596 -4.138185,3.90816 -9.42838,3.96966"
       id="path3789"
       inkscape:connector-curvature="0"
       sodipodi:nodetypes="cssc" />
    <path
       style="fill:none;stroke:#44a6fa;stroke-width:3;stroke-linecap:butt;stroke-linejoin:miter;stroke-miterlimit:4;stroke-opacity:1;stroke-dasharray:none"
       d="m 70.428874,984.65771 0,10.18958 c 0,0 -0.504442,-11.40023 7.667408,-9.38248"
       id="path3791"
       inkscape:connector-curvature="0" />
    <path
       style="fill:none;stroke:#44a6fa;stroke-width:3;stroke-linecap:round;stroke-linejoin:round;stroke-miterlimit:4;stroke-opacity:1;stroke-dasharray:none"
       d="m 87.348056,990.73615 c 0,2.27052 -1.840625,4.11114 -4.111147,4.11114 -2.270527,0 -4.699941,-1.70977 -4.111149,-4.11114 0.540697,-2.20521 2.494834,-3.71863 4.76536,-3.71863 2.270523,0 3.456936,1.44809 3.456936,3.71863 z"
       id="path3793"
       inkscape:connector-curvature="0"
       sodipodi:nodetypes="sssss" />
    <g
       id="g3943"
       transform="matrix(0.28248382,0,0,0.28248382,-39.870603,904.10843)"
       style="stroke:#44a6fa;stroke-width:10.62007713;stroke-miterlimit:4;stroke-opacity:1;stroke-dasharray:none">
      <path
         inkscape:connector-curvature="0"
         id="path3795"
         d="m 460.17857,286.82647 c 0,0 13.21429,-3.39286 23.21429,-1.60715"
         style="fill:none;stroke:#44a6fa;stroke-width:10.62007713;stroke-linecap:butt;stroke-linejoin:miter;stroke-miterlimit:4;stroke-opacity:1;stroke-dasharray:none" />
      <path
         inkscape:connector-curvature="0"
         id="path3797"
         d="m 471.96429,303.61218 c 0,0 1.07143,41.42857 -4.64286,45.17857 -5.71429,3.75 -18.39286,3.75 -18.39286,3.75"
         style="fill:none;stroke:#44a6fa;stroke-width:10.62007713;stroke-linecap:butt;stroke-linejoin:miter;stroke-miterlimit:4;stroke-opacity:1;stroke-dasharray:none" />
    </g>
    <path
       style="fill:none;stroke:#44a6fa;stroke-width:3;stroke-linecap:butt;stroke-linejoin:miter;stroke-miterlimit:4;stroke-opacity:1;stroke-dasharray:none"
       d="m 99.991127,990.71813 5.475193,-0.41588 c 0,0 1.49216,-4.27535 -1.44254,-4.31915 -2.93471,-0.0438 -6.307412,3.85454 -4.642967,6.52642 1.664457,2.6719 4.029747,2.93471 6.657817,2.05868"
       id="path3799"
       inkscape:connector-curvature="0"
       sodipodi:nodetypes="cccsc" />
    <path
       style="fill:none;stroke:#44a6fa;stroke-width:3;stroke-linecap:butt;stroke-linejoin:miter;stroke-miterlimit:4;stroke-opacity:1;stroke-dasharray:none"
       d="m 116.47598,987.7599 c 0,0 -1.88345,-1.66445 -3.76692,-0.26281 -1.88345,1.40164 -4.07353,5.21238 -1.18264,6.83303 2.89089,1.62065 5.21238,-0.13141 5.21238,-0.13141"
       id="path3801"
       inkscape:connector-curvature="0" />
    <g
       id="g3947"
       transform="matrix(0.24528821,0,0,0.24528821,7.5765509,891.5826)"
       style="stroke:#44a6fa;stroke-width:12.23051071;stroke-miterlimit:4;stroke-opacity:1;stroke-dasharray:none">
      <path
         inkscape:connector-curvature="0"
         id="path3803"
         d="m 451.42857,384.68361 c 0,0 29.64286,0.89286 32.85715,-0.89286 3.21428,-1.78571 13.39285,-4.82143 13.39285,-4.82143"
         style="fill:none;stroke:#44a6fa;stroke-width:12.23051071;stroke-linecap:butt;stroke-linejoin:miter;stroke-miterlimit:4;stroke-opacity:1;stroke-dasharray:none" />
      <path
         inkscape:connector-curvature="0"
         id="path3805"
         d="m 474.46429,367.54075 c 0,0 -4.28572,48.03572 -3.21429,49.28572 1.07143,1.25 17.5,6.60714 22.14286,4.28571"
         style="fill:none;stroke:#44a6fa;stroke-width:12.23051071;stroke-linecap:butt;stroke-linejoin:miter;stroke-miterlimit:4;stroke-opacity:1;stroke-dasharray:none" />
    </g>
    <path
       style="fill:none;stroke:#00c1ff;stroke-width:4;stroke-linecap:butt;stroke-linejoin:miter;stroke-miterlimit:4;stroke-opacity:1;stroke-dasharray:none"
       d="m 82.46303,1006.876 c 0,0 -7.839638,-6.2898 -12.488727,0.7293 -4.649087,7.0193 -3.919817,11.5771 0.729267,14.3119 4.649088,2.7348 11.94178,-1.2763 11.94178,-1.2763"
       id="path3807"
       inkscape:connector-curvature="0" />
    <path
       style="fill:none;stroke:#00c1ff;stroke-width:4;stroke-linecap:round;stroke-linejoin:round;stroke-miterlimit:4;stroke-opacity:1;stroke-dasharray:none"
       d="m 99.459149,1017.0488 c 0,3.4043 -3.065801,6.0068 -6.847672,5.8128 -3.781863,-0.1942 -6.847676,-3.111 -6.847676,-6.5153 0,-3.4043 3.065813,-6.0067 6.847676,-5.8128 3.781871,0.1939 6.847672,3.111 6.847672,6.5153 z"
       id="path3809"
       inkscape:connector-curvature="0" />
    <path
       style="fill:none;stroke:#00c1ff;stroke-width:4;stroke-linecap:butt;stroke-linejoin:miter;stroke-miterlimit:4;stroke-opacity:1;stroke-dasharray:none"
       d="m 104.70787,1008.3361 0,15.0412 c 0,0 -0.42512,-8.9379 4.00438,-10.9737 3.66143,-1.6829 8.1053,-0.056 8.48434,4.1368 0.20761,2.2963 -0.45579,7.3838 -0.45579,7.3838"
       id="path3811"
       inkscape:connector-curvature="0"
       sodipodi:nodetypes="ccssc" />
    <path
       sodipodi:nodetypes="cccsc"
       inkscape:connector-curvature="0"
       id="path3960"
       d="m 124.49382,1017.0798 8.75252,0.1654 c 0,0 1.99774,-6.829 -4.16743,-6.5371 -3.73396,-0.054 -6.88395,5.698 -4.76619,9.0975 2.11775,3.3995 5.12715,3.7341 8.47099,2.6194"
       style="fill:none;stroke:#00c1ff;stroke-width:4;stroke-linecap:butt;stroke-linejoin:miter;stroke-miterlimit:4;stroke-opacity:1;stroke-dasharray:none" />
    <path
       style="font-size:medium;font-style:normal;font-variant:normal;font-weight:normal;font-stretch:normal;text-indent:0;text-align:start;text-decoration:none;line-height:normal;letter-spacing:normal;word-spacing:normal;text-transform:none;direction:ltr;block-progression:tb;writing-mode:lr-tb;text-anchor:start;baseline-shift:baseline;color:#000000;fill:#30564e;fill-opacity:1;stroke:none;stroke-width:3;marker:none;visibility:visible;display:inline;overflow:visible;enable-background:accumulate;font-family:Sans;-inkscape-font-specification:Sans"
       d="m 23.041909,977.33447 c 0.85754,16.37984 0.923509,39.09323 1.470201,43.99023 0.507436,4.5454 6.357873,7.5122 20.254545,0.2402 13.396448,-7.0103 15.088065,-14.5001 11.114671,-17.5259 -11.741657,-8.94161 -21.256375,-16.48711 -32.839417,-26.70473 z m 3.85533,7.26437 23.768543,19.19216 c -10.400747,1.9598 -21.204111,9.1072 -22.738615,13.2962 z m 27.272414,24.28126 c -1.298829,6.4283 -17.754233,14.2181 -22.66703,13.9034 -4.743916,-0.3039 0.745632,-8.1252 11.359681,-13.0156 6.360256,-2.9305 12.06569,-4.6411 11.307349,-0.8878 z"
       id="path3768"
       inkscape:connector-curvature="0"
       sodipodi:nodetypes="csssccsccsssss" />
  </g>
</svg>
